<?xml version="1.0" encoding="utf-8"?>
<!-- Generator: Adobe Illustrator 19.0.0, SVG Export Plug-In . SVG Version: 6.00 Build 0)  -->
<svg version="1.1" xmlns="http://www.w3.org/2000/svg" xmlns:xlink="http://www.w3.org/1999/xlink" x="0px" y="0px"
	 viewBox="0 0 2000 2000" style="enable-background:new 0 0 2000 2000;" xml:space="preserve">
<style type="text/css">
	.st0{fill:none;stroke:#000000;stroke-width:10;stroke-linecap:round;stroke-linejoin:round;stroke-miterlimit:10;}
	.st1{fill:#92424B;}
</style>
<g id="text">
	<g id="XMLID_22_">
		<path id="XMLID_44_" d="M492.1,1556c-3.9,0-7.5-0.7-10.8-2.1c-16.8-7-24.7-30.4-24.3-71.6c0.8-83.2,103.7-296.3,140.7-343.8
			c3.2-4.8,26.5-38.9,46.1-28.2l0.5,0.3c7.5,5.3,8.8,17.8,4.2,38.2c-3.1,13.7-7.8,26-8,26.6l-18.6,46.8c-1,2.6-3.9,3.8-6.5,2.8
			c-2.6-1-3.8-3.9-2.8-6.5l18.6-46.7c8.4-21.8,13.3-48,7.6-52.9c-9.3-4.5-26,15-32.7,25.2l-0.2,0.3c-18.9,24.3-53.8,90.4-83,157.3
			c-35.1,80.5-55.4,146.3-55.7,180.7c-0.4,35.6,5.9,57.2,18.2,62.3c10.1,4.2,25.7-1.6,46.3-17.3c18.7-14.2,37.8-33.6,53.2-49.2
			c7.7-7.8,14.3-14.6,19.4-19.1c2.1-1.8,5.2-1.7,7.1,0.4c1.8,2.1,1.7,5.2-0.4,7.1c-4.8,4.3-11.4,10.9-18.9,18.6
			c-15.6,15.8-34.9,35.5-54.2,50.1C519.3,1549.1,504.3,1556,492.1,1556z"/>
	</g>
	<g id="XMLID_23_">
		<path id="XMLID_41_" d="M670.2,1485.4c-2.6,0-4.5-0.7-5.9-1.5c-14-7.6-4.4-42.2,2.6-59.5c11.8-28.9,33.3-57,58.1-49.3l0.3,0.1
			c5.8,2.3,8.4,8.3,6.9,16.2c-3.1,16-25.4,44.2-59.2,45.2c-7.7,22.5-6.5,37.2-4,38.5l0.4,0.2c0.6,0.2,7.3,1.7,38.1-18
			c16.7-10.7,32-22.2,32.1-22.3c2.2-1.7,5.3-1.2,7,1c1.7,2.2,1.2,5.3-1,7c-0.2,0.1-16.3,12.3-33.8,23.4
			C688.5,1481.2,676.8,1485.4,670.2,1485.4z M716.7,1383.8c-16,0-30.9,21.6-39.8,42.5c25.8-2.9,43.1-24.7,45.5-36.8
			c0.1-0.7,0.7-4.2-0.6-4.9C720.1,1384,718.4,1383.8,716.7,1383.8z"/>
	</g>
	<g id="XMLID_21_">
		<path id="XMLID_40_" d="M809.5,1487.2c-7,0-12.7-2.4-16.9-7.2c-17.4-19.6-4.9-76.4,19.1-155.7c9-32.6,24.4-67.9,42.4-96.9
			c18.4-29.7,37.1-49.5,52.7-55.8c9.7-3.9,16.7-1.8,20.8,0.6l1,0.6l0.6,1c9.4,14.4,0.1,37.4-28.3,70.3c-19.9,23-42.4,42.7-42.6,42.9
			c-2.1,1.8-5.2,1.6-7.1-0.5c-1.8-2.1-1.6-5.2,0.5-7.1c0.2-0.2,22.3-19.5,41.7-42c23.2-26.9,33.1-47.1,28-57.3
			c-3-1.3-6.5-1.1-10.9,0.6c-28.8,11.6-71.3,81.2-89.2,146.1l0,0.1c-12.5,41.2-38.5,126.8-21.3,146.3c3,3.4,7.6,4.5,13.9,3.4
			c2.7-0.5,5.3,1.3,5.8,4.1c0.5,2.7-1.3,5.3-4.1,5.8C813.5,1487,811.4,1487.2,809.5,1487.2z"/>
	</g>
	<g id="XMLID_25_">
		<path id="XMLID_39_" d="M883.5,1487.2c-7,0-12.7-2.4-16.9-7.2c-17.4-19.6-4.9-76.4,19.1-155.7c9-32.6,24.4-67.9,42.4-96.9
			c18.4-29.7,37.1-49.5,52.7-55.8c9.8-3.9,16.7-1.8,20.8,0.6l1,0.6l0.6,1c9.4,14.4,0.1,37.4-28.3,70.3c-19.9,23-42.4,42.7-42.6,42.9
			c-2.1,1.8-5.2,1.6-7.1-0.5c-1.8-2.1-1.6-5.2,0.5-7.1c0.2-0.2,22.3-19.5,41.7-42c23.2-26.9,33.1-47.1,28-57.3
			c-3-1.3-6.5-1.1-10.9,0.6c-28.8,11.6-71.3,81.2-89.2,146.1l0,0.1c-12.5,41.2-38.5,126.8-21.3,146.3c3,3.4,7.6,4.5,13.9,3.4
			c2.7-0.5,5.3,1.3,5.8,4.1c0.5,2.7-1.3,5.3-4.1,5.8C887.5,1487,885.4,1487.2,883.5,1487.2z"/>
	</g>
	<g id="XMLID_26_">
		<path id="XMLID_38_" d="M940.8,1481.5c-3.3,0-6.2-1.2-8.5-3.5c-0.4-0.4-0.7-0.8-1-1.3c-6.2-12.6-3.3-30.4,10.1-61.4
			c11.9-27.6,28.9-48.5,43.4-53.2c5.4-1.8,10.5-1.4,14.9,1.1c11.7,5.2,10.6,21.3,8.1,30c-0.8,2.7-3.5,4.2-6.2,3.4
			c-2.6-0.8-4.2-3.5-3.4-6.2l0,0c0-0.2,4.1-15.4-2.6-18.2c-0.2-0.1-0.4-0.2-0.6-0.3c-2-1.1-4.2-1.3-7-0.3
			c-11.5,3.8-26.9,23.4-37.4,47.7c-11.3,26.3-14.7,42.5-10.7,52c0.3,0.1,0.7,0.2,1.4,0.1c3.2-0.3,13.2-4.2,36.3-33.1
			c13.2-16.5,24.1-33,24.2-33.1c1.3-1.9,3.7-2.7,5.9-1.9c2.2,0.8,3.5,3,3.2,5.3c-2.2,18.5-1.8,47.8,6.2,52.2
			c9.1,4.9,20.8-1.3,20.9-1.3c2.4-1.3,5.5-0.4,6.8,2c1.3,2.4,0.4,5.4-2,6.8c-0.7,0.4-16.5,8.9-30.5,1.4
			c-11.2-6.1-13.1-27.5-12.7-43.8c-4,5.6-9,12.2-14.3,18.9c-28.3,35.4-39.5,36.5-43.2,36.9C941.8,1481.5,941.3,1481.5,940.8,1481.5z
			"/>
	</g>
	<g id="XMLID_27_">
		<path id="XMLID_34_" d="M1107.3,1621c-0.5,0-1.1-0.1-1.6-0.3c-5.6-1.9-9.8-5.6-12.4-11c-9.5-19.8,5.3-60.1,21-102.8l1-2.7
			c4.7-13,10.2-25.6,15.4-37.8c10-23.4,21.3-49.8,16.3-56.9c-1.2-1.7-4.1-2.4-8.5-2c-7.5,0.8-14.2,1-20,0.6
			c-14.9,30.6-34.2,62.8-34.4,63.1c-1.4,2.4-4.5,3.1-6.9,1.7c-2.4-1.4-3.1-4.5-1.7-6.9c0.2-0.4,18.2-30.4,32.7-59.7
			c-7.1-1.9-12.2-5.3-15.4-10.1c-5-7.5-4.4-17.9,1.6-28.5c6.2-11,18.2-21.9,29.2-21.5c6.2,0.3,10.4,2.3,12.7,6
			c4.4,7.1-0.3,17.3-6.1,30.3c-1.2,2.6-2.4,5.3-3.6,8c-1.1,2.5-2.2,5.1-3.4,7.7c4.3,0.1,9.1-0.2,14.3-0.7c0.1,0,0.1,0,0.2,0
			c8.2-0.7,14.1,1.4,17.5,6.1c8.4,11.6-1.5,34.7-15.2,66.6c-5.2,12.1-10.5,24.6-15.2,37.3l-1,2.7c-14.2,38.8-29,79-21.3,95
			c1.4,2.9,3.5,4.8,6.6,5.8c2.6,0.9,4,3.7,3.1,6.3C1111.4,1619.7,1109.4,1621,1107.3,1621z M1122.9,1356.4c-5,0-14.3,6.6-19.8,16.4
			c-1.9,3.4-6,12-2,18c2,3.1,5.9,5.2,11.5,6.4c1.7-3.6,3.3-7.1,4.8-10.5c1.2-2.8,2.5-5.5,3.6-8.2c3.5-7.7,8.3-18.3,6.7-20.9
			c-0.3-0.5-1.7-1.1-4.6-1.3C1123,1356.4,1122.9,1356.4,1122.9,1356.4z"/>
	</g>
	<line id="XMLID_28_" class="st0" x1="1236.9" y1="1349.8" x2="1239.1" y2="1347.7"/>
	<g id="XMLID_29_">
		<path id="XMLID_33_" d="M1215,1488.7c-0.5,0-1-0.1-1.5-0.2c-3.9-1.2-7-4-8.9-8.1c-10.6-23.1,19.2-92.6,22.7-100.5
			c1.1-2.5,4.1-3.7,6.6-2.6c2.5,1.1,3.7,4.1,2.6,6.6c-12.3,28.1-29.3,77.9-22.7,92.3c0.9,1.9,1.9,2.5,2.7,2.7
			c2.6,0.8,4.1,3.6,3.3,6.3C1219.1,1487.3,1217.1,1488.7,1215,1488.7z"/>
	</g>
	<g id="XMLID_30_">
		<path id="XMLID_32_" d="M1287.6,1482.4c-0.5,0-1,0-1.5-0.1c-3.6-0.5-8.3-3-10.7-12c0-0.1,0-0.2-0.1-0.2
			c-3.3-15.4,6.1-42.4,15.1-68.5c4.5-12.9,8.7-25,11-34.7c3.1-13.2,1.1-15.3,1-15.4l0,0c0,0-0.1,0-0.3-0.1c-0.3,0.2-0.6,0.9-0.7,1.1
			c-0.8,2.6-3.6,4.2-6.2,3.4c-2.6-0.8-4.2-3.6-3.4-6.2c1.3-4.4,5.4-8.8,11.2-8.2c3.4,0.3,6.1,2,7.9,4.7c5.7,8.9-0.5,28.1-11,58.6
			c-8.2,23.6-17.4,50.3-14.8,63c1,3.6,2.1,4.5,2.4,4.6c0.6,0.1,6.4,0.2,23.3-23.2c10.9-15.1,22.6-34.6,33-51.7
			c17.4-28.9,22.4-36.5,27-38c1.8-0.6,3.8-0.2,5.2,1.2c2.6,2.4,1.7,5.8,0.5,10.6c-0.9,3.4-2.2,8.1-3.7,13.6
			c-4.1,14.4-9.6,34.1-12.7,51.6c-4.7,26.8-0.5,32.7,0.8,33.9c1.9,1.6,6.1,0.1,8.4-1c2.5-1.2,5.5-0.1,6.6,2.4
			c1.2,2.5,0.1,5.5-2.4,6.6c-8,3.7-14.4,3.5-19.1-0.5c-13.1-11.2-4.4-48.9,7.3-90.7c-3,4.9-6.3,10.3-9.4,15.4
			C1324.3,1449.2,1303.1,1482.4,1287.6,1482.4z"/>
	</g>
	<g id="XMLID_31_">
		<path id="XMLID_24_" d="M1505.3,1509.2c-1.9,0-3.7-0.5-5.3-1.4c-6.9-3.8-8.7-14.7-5.5-34.2c2.5-15.6,7.5-32.3,9.5-38.8
			c0.1-0.2,5.8-18.5,10.6-38c7.1-28.6,7.2-38.7,6.7-42.1c-2.9,1.6-11,8.3-27.9,35.5c-11.5,18.5-21.3,37-21.4,37.2
			c-1.2,2.3-3.9,3.3-6.3,2.3c-2.4-0.9-3.7-3.5-3-6c6-21.1,11.5-46.1,11.5-55.2c-4.1,2.7-12.9,12.7-26.8,49.8
			c-2.9,7.9-5.7,15.9-8.1,23.2c-5.2,18-9.5,31.5-9.6,31.7c-0.8,2.6-3.6,4-6.2,3.3c-2.6-0.8-4.1-3.5-3.4-6.1
			c0.1-0.2,3.8-14.1,9.6-31.8c2.2-7.7,4.6-16.2,6.8-24.8c10.2-39.4,10.9-54.4,10.3-60c-3.1,5-7.7,15.5-11.3,26.1
			c-0.9,2.6-3.7,4-6.3,3.1c-2.6-0.9-4-3.7-3.1-6.3c0.1-0.4,3-8.8,6.6-17.1c5.4-12.3,10.4-20.1,17.2-17.9c8.1,2.6,7.8,15.2,6.3,27.1
			c-0.3,2.5-0.7,5.3-1.2,8.2c9.8-17.1,16.9-19.7,22.3-19.3c2,0.1,3.7,1.1,4.9,2.8c1.9,2.7,3.5,7.6-1.3,30.7c1.5-2.6,3.1-5.1,4.7-7.7
			c23-36.6,32.4-40.3,38.6-39.1c2.1,0.4,4,1.7,5.1,3.7c2.5,4.1,4.1,13.6-5.1,50.8c-4.9,19.9-10.8,38.6-10.8,38.8
			c-1.9,6.2-6.7,22.4-9.2,37.4c-3.4,21,0.5,23.8,0.5,23.9c0.1,0,6.2,2.3,29.8-24.9c1.8-2.1,5-2.3,7.1-0.5c2.1,1.8,2.3,5,0.5,7.1
			C1525.2,1500.2,1513.7,1509.2,1505.3,1509.2z"/>
	</g>
</g>
<g id="circle">
	<g id="XMLID_20_">
		<g id="XMLID_550_">
			<g id="XMLID_566_">
				<g id="XMLID_568_">
					<path id="XMLID_613_" class="st1" d="M573.7,553C573.7,553,573.7,553,573.7,553L573.7,553z"/>
					<path id="XMLID_612_" class="st1" d="M1352,636.2c1,1.2,0.2,2.3,0.2,3.5C1352.2,638.6,1353,637.4,1352,636.2
						C1352,636.2,1352,636.2,1352,636.2C1353,638.3,1352,636.2,1352,636.2z"/>
					<path id="XMLID_611_" class="st1" d="M1329,710.2C1329.2,709.5,1329.2,709.5,1329,710.2L1329,710.2z"/>
					<path id="XMLID_610_" class="st1" d="M1329.3,708.8c0,0.1-0.1,0.4-0.1,0.8C1329.2,709.2,1329.3,708.9,1329.3,708.8z"/>
					<path id="XMLID_609_" class="st1" d="M702.3,925.5c-19.4-17.7-37.1-37.1-52.8-58.2c-10.9-14.7-18.9-38.7-34-49.4
						c-0.3-0.3-0.7-0.5-1.2-0.8c2.7,13,11.8,23.9,19.1,34.6c9.2,13.3,18.7,26.3,29.2,38.6c20.5,24,44.7,43,68.9,63
						c4-0.5,4.9,5.7,9.3,4.2C730.6,945.3,714.3,936.5,702.3,925.5C690.7,915,714.3,936.5,702.3,925.5z"/>
					<path id="XMLID_608_" class="st1" d="M613.3,817c0.1,0,0.1,0,0.1,0c1.5-0.9-7.9-21.4-10.3-23.9
						C600.2,798.6,609.4,813,613.3,817C613.4,817,609.4,813,613.3,817z"/>
					<path id="XMLID_607_" class="st1" d="M764.9,957.6c1.8,4.6,5.9,5.3,10,6C773.1,959,769,958.3,764.9,957.6z"/>
					<path id="XMLID_606_" class="st1" d="M740.8,957.6c0.8,3.2,2.9,4.3,6,4C746.1,958.4,743.9,957.2,740.8,957.6z"/>
					<path id="XMLID_605_" class="st1" d="M738.1,939.2c-0.3-1.9-1.4-3.2-3.3-3.9C731.2,936.7,735.5,939.6,738.1,939.2z"/>
					<path id="XMLID_604_" class="st1" d="M741,942.7c1.5,1.1,3,2.2,4.5,3.4c0.7-0.8,1-1.2,1.3-1.6
						C744.8,943.2,742.9,940.6,741,942.7z"/>
					<path id="XMLID_603_" class="st1" d="M746.9,945.5c0.8,3.2,2.9,4.3,6,4C752.1,946.4,750,945.2,746.9,945.5z"/>
					<path id="XMLID_602_" class="st1" d="M859.3,999.7c2.7,2.3,4.4,2,8,2C864.6,999.4,862.9,999.7,859.3,999.7z"/>
					<path id="XMLID_601_" class="st1" d="M752.9,949.5c2.4,3.3,3.3,5.5,6.2,2.4C757.3,951.1,754.9,949.5,752.9,949.5z"/>
					<path id="XMLID_600_" class="st1" d="M801.1,977.6c1.3,3.3,3.9,4.1,6.5,2.3C805.3,976.9,806.4,977.6,801.1,977.6z"/>
					<path id="XMLID_599_" class="st1" d="M722.9,928.3c0.6,0.5,1.2,0.9,2.5,2c1.6-1.6,1.7-3.1,0.1-4.6
						C724.7,926.5,723.8,927.4,722.9,928.3z"/>
					<path id="XMLID_598_" class="st1" d="M853.3,997.7c0.9,3.9,4,1.2,6,2C858.4,995.8,855.3,998.5,853.3,997.7z"/>
					<path id="XMLID_597_" class="st1" d="M782.2,969.3c0.3-0.5,0.5-1,1.1-2.3c-1.8-1.9-3.3-2.1-4.4-0.5
						C780.1,967.5,781.2,968.4,782.2,969.3z"/>
					<path id="XMLID_596_" class="st1" d="M773.6,941.9c-0.1,0.4-0.1,0.8,0,1.3c0.9,0.1,1.9,0.2,2.8,0.3
						C776.8,941.5,775.8,941,773.6,941.9C773.6,942.3,775.8,941,773.6,941.9z"/>
					<path id="XMLID_595_" class="st1" d="M791,951.1c-0.6-1.9-1.8-2.2-3.6-0.9C787.8,951.9,789.1,952.2,791,951.1z"/>
					<path id="XMLID_594_" class="st1" d="M761.1,956.4c0.6,0.5,1.2,0.9,2,1.6c0.7-0.5,1.3-0.9,1.8-1.3
						C763.9,955.3,762.6,955.2,761.1,956.4z"/>
					<path id="XMLID_593_" class="st1" d="M746.9,961.6c1.8,2.7,1.9,1.9,4.8,1.2C750.2,961.8,748.6,961.4,746.9,961.6z"/>
					<path id="XMLID_592_" class="st1" d="M779,965.6c-0.2-3-2.5-1.7-4-2C775.1,966.6,777.5,965.3,779,965.6z"/>
					<path id="XMLID_591_" class="st1" d="M753.2,966.3c0.5,1.7,1.7,2,3.6,0.9C756.3,965.3,755,965,753.2,966.3z"/>
					<path id="XMLID_590_" class="st1" d="M761.1,972c0.7-0.5,1.3-0.9,1.8-1.3c-1.1-1.3-2.4-1.4-3.8-0.2
						C759.7,970.9,760.3,971.4,761.1,972z"/>
					<path id="XMLID_589_" class="st1" d="M787.2,972c0.7-0.5,1.3-0.9,1.8-1.3c-1.1-1.3-2.4-1.4-3.8-0.2
						C785.8,970.9,786.4,971.4,787.2,972z"/>
					<path id="XMLID_588_" class="st1" d="M762.9,971.6c1.8,2.7,1.9,1.9,4.8,1.2C766.3,971.8,764.6,971.4,762.9,971.6z"/>
					<path id="XMLID_587_" class="st1" d="M789,971.6c0.2,3,2.5,1.7,4,2C792.9,970.6,790.5,971.9,789,971.6z"/>
					<path id="XMLID_586_" class="st1" d="M793,973.6c0.2,3,2.5,1.7,4,2C796.9,972.6,794.6,973.9,793,973.6z"/>
					<path id="XMLID_585_" class="st1" d="M797.1,975.6c0.2,3,2.5,1.7,4,2C800.9,974.6,798.6,975.9,797.1,975.6z"/>
					<path id="XMLID_584_" class="st1" d="M777.3,980.3c0.5,1.7,1.7,2,3.6,0.9C780.4,979.3,779.1,979,777.3,980.3z"/>
					<path id="XMLID_583_" class="st1" d="M811.3,981.9c-0.3-0.7-0.8-1.5-1.2-2.3c-1.3,1.2-1.3,2.5,0,4
						C810.4,983.1,810.8,982.6,811.3,981.9z"/>
					<path id="XMLID_582_" class="st1" d="M815.1,983.7c0.2,3,2.5,1.7,4,2C819,982.7,816.6,984,815.1,983.7z"/>
					<path id="XMLID_581_" class="st1" d="M873.6,1004.1c0.7-0.5,1.3-0.9,1.8-1.3c-1.1-1.3-2.4-1.4-3.8-0.2
						C872.1,1003,872.7,1003.5,873.6,1004.1z"/>
					<path id="XMLID_580_" class="st1" d="M806.1,957.6c-0.9,0.5-0.9,1.2,0,2c0.2-0.2,0.4-0.4,0.7-0.7
						C806.6,958.4,806.3,958,806.1,957.6C805.2,958.1,806.3,958,806.1,957.6z"/>
					<path id="XMLID_579_" class="st1" d="M802.1,955.6c-0.2,0.4-0.5,0.9-0.7,1.3c0.3,0.3,0.5,0.5,0.7,0.7
						C803,956.7,803,956.1,802.1,955.6C801.8,956,803,956.1,802.1,955.6z"/>
					<path id="XMLID_578_" class="st1" d="M799.1,954.5c-0.2-0.2-0.4-0.4-0.7-0.7c-0.4,0.2-0.9,0.5-1.3,0.7
						C797.6,955.4,798.2,955.4,799.1,954.5C798.8,954.3,798.2,955.4,799.1,954.5z"/>
					<path id="XMLID_577_" class="st1" d="M794,951.5c-0.9,0.5-0.9,1.2,0,2C794.9,953,794.9,952.4,794,951.5z"/>
					<path id="XMLID_576_" class="st1" d="M783,948.5c0.4,0.2,0.9,0.5,1.3,0.7c0.3-0.3,0.5-0.5,0.7-0.7
						C784.2,947.6,783.5,947.6,783,948.5C783.4,948.8,783.5,947.6,783,948.5z"/>
					<path id="XMLID_575_" class="st1" d="M869.2,1002.9c-0.3-0.4-0.6-0.8-0.9-1.2c-0.3,0.3-0.6,0.6-0.9,0.9
						C868,1003.7,868.6,1003.8,869.2,1002.9z"/>
					<path id="XMLID_574_" class="st1" d="M784,983.7c0.2-0.2,0.4-0.4,0.7-0.7c-0.2-0.4-0.5-0.9-0.7-1.3
						C783.1,982.2,783.1,982.8,784,983.7C784.2,983.4,783.1,982.8,784,983.7z"/>
					<path id="XMLID_573_" class="st1" d="M727.7,929.5c-0.3,0.3-0.6,0.6-0.9,0.9c0.7,1.1,1.3,1.2,1.8,0.3
						C728.3,930.2,728,929.8,727.7,929.5z"/>
					<path id="XMLID_572_" class="st1" d="M814.2,983.7c0.3,0,0.6,0,0.9,0c0-1.5-0.6-1.9-1.8-1.2
						C813.6,982.9,813.9,983.3,814.2,983.7z"/>
					<path id="XMLID_571_" class="st1" d="M774,979.6c0.9-0.5,0.9-1.2,0-2C773.1,978.2,773.1,978.8,774,979.6z"/>
					<path id="XMLID_570_" class="st1" d="M796.3,989.4c0.3-0.3,0.5-0.5,0.7-0.7c-0.8-0.9-1.5-0.9-2,0
						C795.5,988.9,795.9,989.2,796.3,989.4z"/>
					<path id="XMLID_569_" class="st1" d="M801.1,990.7c-0.2-0.2-0.4-0.4-0.7-0.7c-0.4,0.2-0.9,0.5-1.3,0.7
						C799.6,991.6,800.3,991.6,801.1,990.7z"/>
				</g>
				<path id="XMLID_567_" class="st1" d="M1351.8,639.6C1351.9,639.8,1351.9,639.9,1351.8,639.6L1351.8,639.6z"/>
			</g>
			<path id="XMLID_551_" class="st1" d="M1355.8,650.3c-1.3-18.9,0.3-37.8-0.6-56.7c-1-22.1-5.8-43.7-10.6-65.3
				c-8.9-39.7-23.1-77.8-45.1-112.3c-43.8-68.8-106.5-122.5-179.5-158.6c-140.6-69.5-322.6-36.6-434.5,71.2
				c-32.6,31.4-60.3,68.1-81.2,108.3c-11.1,21.4-21.7,43.6-28.7,66.8c-3.2,10.5-5.4,21.3-8,31.9c-1.8,7.5-8.6,23.4-6.6,30.9
				c11.7-5.8,2.3-48.7,16.9-49.3c0,9.2-4,18.2-6.1,27.1c-2.8,11.6-5,23.4-6.1,35.2c-1,10.2-0.9,20.4-1.5,30.6
				c-0.5,8.5-2.7,19,1.3,27.1c9.8-9.6,1.8-33.4,6.4-45.8c3,9.8,1.3,20.9,0.9,30.9c-0.3,7.2-3,18.4,1.2,24.8
				c3.7-8.7,1.5-22.7,2.6-32.1c1.5-13.2,1.7-26.6,3.3-39.8c3.1-25.2,9.5-50.1,17.2-74.3c14.9-47.3,42.1-94.6,76.6-130.6
				c68.4-71.6,162.2-121.8,262.8-124.6c99.8-2.7,201.7,35.1,273.1,105.8c74.1,73.3,108.4,172.7,110.2,275.2
				c0.9,54.7-11.6,110.5-34.9,160c-11.9,25.4-27.5,49.5-44,72.2c-7.8,10.8-16,20.3-26.3,28.8c-10,8.2-22.4,15.5-29.5,26.6
				c6.3-1.2,9.6-6.6,14.3-10.2c5.5-4.2,12.2-5.7,17.7-9.8c5.1-3.8,9-9,13.8-13.2c4.2-3.7,11.5-7.2,14.2-12.2
				c-8.9,16.5-24.2,28.9-37.3,41.9c-14.8,14.6-30.7,27.3-48.1,38.8c-7.6,5-15.1,10-23.2,14.2c-3.1,1.6-8,3.2-10.6,5.7
				c-2,1.9-2.5,5-3.8,6.2c-6.5,6.4-25.5,7.2-29.4,16.8c16.3,0,36.8-14.6,50.4-22.5c18.2-10.5,36.3-21.7,52.7-34.9
				c15.4-12.4,28.2-26.5,41.7-40.9c5.5-5.8,10.8-10.7,15.3-17.4c3.1-4.6,7-14.6,13.8-14.9c-28.8,48.5-75.3,86.3-124.3,113.2l0,0
				c-10.5,7.3-22.5,12-34.2,17c-12.1,5.2-24.2,11.7-37.2,14c-1.7,0.7-3.4,1.3-5.1,2c-0.8,0.5-1.6,0.6-2.5,0.4
				c-1.4,0.2-2.7,0.8-4,1.3c-0.4,0.4-1,0.7-1.7,0.7c-1.9,0.9-4.5,0.6-6.4,1.3c-0.6,0.5-1.2,0.8-2,0.8c0.5-0.1-6.9,1.4-6.2,1.3
				c-1.4,0.8-2.9,0.7-4.6,0.7c-0.8,0.5-1.7,1.1-2.5,1.6c-4,4.1-14.2,3.3-19.5,4c-10.5,1.3-21,2.5-31.6,3.3
				c-26.3,2.1-51.9,0.2-78.2-0.9c-0.6-0.2-1.3-0.3-2-0.1c-2.9-0.2-5.7-1-8.6-1.5c-0.7-0.6-1.5-0.7-2.3-0.3c-1.7-0.2-3.3-0.3-5-0.1
				c-0.6-0.1-1.3-0.2-2-0.1c-0.1,0-0.2,0-0.3-0.1c-2.7-2.2-4.4-1.9-7.9-1.9c0.9,0.7,1.6,1.2,2.4,1.5c2.3,4.2,18.4,4.8,22.7,4.8
				c0,0.1,0.7,0.1,1,0c2.1,0,4.2,0.1,6.2,0.7c0,0,0,0-0.1,0c0.8,0.9,1.7,1.1,2.6,0.8c13,3.9,31.7,2.5,45.2,2.3
				c10.6-0.1,30.3-6.4,39.8-0.7c-13.3,6.2-30.4-1.3-43.8,5.7c7.8,4,18.4,1.5,26.8,1.2c13.2-0.5,26.1-0.5,39.2-2.8
				c26.1-4.5,52.2-12.4,77.1-21.5c48.6-17.9,91.2-45.9,129.6-80.6c38.2-34.6,69.5-77.6,91.6-124.1c11.5-24.1,21.2-49.7,26.8-75.8
				C1350.7,704.5,1357.6,676.7,1355.8,650.3C1354.7,633.1,1357.5,674,1355.8,650.3z M576.6,568.1l-2,9.5l-0.1-0.1
				c0.1,0.9,1.1,7.4-0.7,7.3c-2.3-0.2-1.5-8.1-1.1-9.6l-0.1-0.1c0.4-0.3,2.1-7.7,2.1-7.7c-0.3-1.9,0.4-4,0.7-5.9
				C576.2,563.3,576.8,566,576.6,568.1z M580,511.3c0.2,0,0.4,0.4,0.7,0.6c-1.1,0.6-1.2,0.9-2,0C579.1,511.7,579.5,511.4,580,511.3z
				 M580.5,543.2c0,0.3-2,11.1-2.9,11.9c-0.6-1.3,1.1-11.5,1.1-11.5s2.7-10.2,2.9-10.6c0.3,0.7,1,1.7,0.9,2.5L580.5,543.2z
				 M1270.3,858.2c-0.2-0.2-0.9-0.9-0.9-0.9C1270.9,856.1,1271.3,856.9,1270.3,858.2z M1272.2,854c-0.4-1.4-0.2-1.3,1.2-1.8
				C1273,853.4,1272.6,853.7,1272.2,854z M1273.5,852.2c0-4.6,0.1-2.2,2.4-4.5C1275.9,847.7,1275.9,852,1273.5,852.2z M1278.3,844
				c-0.4-1.4-0.2-1.3,1.2-1.8C1279.1,843.3,1278.7,843.7,1278.3,844z M1281.5,840.1c0.7-3.6,1.9-6.4,4.7-8.7
				C1286.1,831.5,1284.3,840,1281.5,840.1z M1287.1,830.4c1-1.5,2.1-8.2,4.4-8.3C1291.2,823.6,1289.3,828.5,1287.1,830.4z
				 M1293.5,820.1c0.2-0.9-0.2-1.8,2.4-4.5C1296,815.6,1296,819.9,1293.5,820.1z M1298.8,811.7c-0.4-0.2-0.9-0.5-1.3-0.7
				c0.8-0.8,1-0.5,2,0L1298.8,811.7z M1304.3,794.5c2.8-8.1,5.7-16.1,8.6-24.2c4.7-13.1,8.9-26.4,13.9-39.4
				c-0.9,11.1-6.5,22.5-9.6,33.2c0,0-16.1,42-16.6,42C1300.2,804.9,1303.5,796.7,1304.3,794.5z M1343.7,638.5
				c-1.2,20.8-2.1,40.5-7.4,61.5h0c-0.2,1-0.3,1.2-0.3,2c0,0,0,0,0,0l-0.2,0.1h0c-0.3,2-0.7,2.6-1,3.8c-2.6,9.4-4.9,18.8-7.7,28.1
				c2.7-9.2,4.1-18.7,6.6-28c-0.2,0.6,1.5-5.4,1.5-5.4c0.1-0.4,0.2-0.8,0.3-1.2l0,0c-0.3-11.1,3.8-22.2,5.1-33.2
				c1.3-11.5,2-22.9,1.9-34.5C1344.6,632.9,1344,636.5,1343.7,638.5C1342.5,659.3,1344,636.5,1343.7,638.5z"/>
		</g>
	</g>
</g>
<g id="c">
	<path id="XMLID_1_" d="M1159.8,408.6c0,0-4.3,7.6-2.1,9.3c3.8,3.1,8.8-3.8,8.8-3.8s12-13.4,10.5-28.3s-6.3-41-68.4-31.6
		c-63.1,9.2-181.1,103.6-240.9,186C803.5,619.1,763.7,695,751,747.8c-14.7,55.9-11.5,102,20,129c34.3,32,96.2,39.2,158.5,22.3
		c63-18.7,86.8-32.5,124.6-54.9c42.8-24.3,80.9-65.1,80.9-65.1s2.7-3.2,1-7.1c-1.7-3.9-7.1-1.6-7.1-1.6s-44.7,40.1-76.4,55.3
		c-32.5,18.2-67.5,35.7-92.1,43.5c-10.5,3.4-42.2,15.5-70,18.7c-71.7,14.3-124.3-23.3-132-61.8c-8.5-46.8,11.9-93.3,24.2-124.7
		c12.3-31.3,77.2-128,154.2-209c88-82.7,151.8-110.8,151.8-110.8s25.9-11.8,36.5-12.8c9.6-1.3,20.2-4.3,31.2,4.6
		C1170.3,384.4,1159.8,408.6,1159.8,408.6z"/>
</g>
</svg>
